<svg id="Capa_1" enable-background="new 0 0 511.999 511.999" height="512" viewBox="0 0 511.999 511.999" width="512" xmlns="http://www.w3.org/2000/svg"><g><g><g><path d="m416.769 362.794h-51.499v-31.539h51.499c5.138 0 10.215-.824 15.089-2.45 15.759-5.255 27.464-18.04 31.312-34.201l9.373-39.367c1.049-4.405.041-8.97-2.766-12.523-2.807-3.554-7.014-5.592-11.542-5.592h-60.298v-31.539h60.298c14.239 0 27.466 6.408 36.292 17.582 8.825 11.173 11.996 25.526 8.698 39.377l-9.373 39.367c-6.392 26.846-25.837 48.085-52.016 56.814-8.098 2.701-16.531 4.071-25.067 4.071z" fill="#ddeafb"/></g><path d="m494.527 223.165c-8.826-11.174-22.053-17.582-36.292-17.582h-16.822c14.239 0 27.466 6.408 36.292 17.582 8.825 11.173 11.996 25.526 8.698 39.377l-9.373 39.367c-6.392 26.846-25.837 48.085-52.016 56.814-8.097 2.7-16.531 4.07-25.066 4.07h16.822c8.535 0 16.969-1.369 25.066-4.07 26.179-8.73 45.625-29.969 52.016-56.814l9.373-39.367c3.298-13.851.128-28.203-8.698-39.377z" fill="#cbe2ff"/><path d="m296.729 398.31h-111.327c-57.583 0-106.218-42.741-113.617-99.846l-14.172-109.38c-1.625-12.543 8.143-23.659 20.791-23.659h321.966c12.391 0 22.078 10.688 20.864 23.019l-10.49 106.525c-5.774 58.643-55.09 103.341-114.015 103.341z" fill="#ddeafb"/><path d="m400.37 165.426h-30.391c12.391 0 22.078 10.688 20.864 23.02l-10.49 106.525c-5.775 58.642-55.09 103.34-114.016 103.34h30.391c58.925 0 108.241-44.698 114.016-103.34l10.49-106.525c1.214-12.332-8.473-23.02-20.864-23.02z" fill="#cbe2ff"/><path d="m313.698 293.156c-12.961 0-23.469-10.507-23.469-23.469v-36.312h46.938v36.312c-.001 12.961-10.508 23.469-23.469 23.469z" fill="#5f99d7"/><path d="m313.698 233.375v36.312c0 8.685-4.722 16.263-11.734 20.321 3.453 1.998 7.458 3.148 11.734 3.148 12.961 0 23.469-10.507 23.469-23.469v-36.312z" fill="#3c87d0"/><path d="m447.666 442.187h-403.814c-20.077 0-36.352-16.275-36.352-36.352 0-4.155 3.369-7.524 7.524-7.524h461.47c4.155 0 7.524 3.369 7.524 7.524 0 20.076-16.275 36.352-36.352 36.352z" fill="#cbe2ff"/><path d="m447.666 442.187h-403.814c-20.077 0-36.352-16.275-36.352-36.352 0-4.155 3.369-7.524 7.524-7.524h461.47c4.155 0 7.524 3.369 7.524 7.524 0 20.076-16.275 36.352-36.352 36.352z" fill="#7a6d79"/><path d="m476.494 398.31h-38.604c4.155 0 7.524 3.369 7.524 7.524 0 20.077-16.276 36.352-36.352 36.352h38.605c20.077 0 36.352-16.276 36.352-36.352-.001-4.155-3.369-7.524-7.525-7.524z" fill="#685e68"/><g><path d="m124.63 260.921c6.882-4.412 16.066-1.951 19.82 5.311 2.49 4.817 7.558 7.743 12.974 7.491 8.165-.38 14.889 6.344 14.509 14.509-.252 5.417 2.674 10.484 7.491 12.974 7.261 3.754 9.722 12.938 5.311 19.82-2.927 4.565-2.927 10.416 0 14.981 4.412 6.882 1.951 16.066-5.311 19.82-4.817 2.49-7.743 7.558-7.491 12.974.38 8.165-6.344 14.889-14.509 14.509-5.417-.252-10.484 2.674-12.974 7.491-3.754 7.261-12.938 9.722-19.82 5.311-4.565-2.927-10.416-2.927-14.981 0-6.882 4.412-16.066 1.951-19.82-5.311-2.49-4.817-7.558-7.743-12.974-7.491-8.165.38-14.889-6.344-14.509-14.509.252-5.417-2.674-10.484-7.491-12.974-7.261-3.754-9.722-12.938-5.311-19.82 2.927-4.565 2.927-10.416 0-14.981-4.412-6.882-1.951-16.066 5.311-19.82 4.817-2.49 7.743-7.558 7.491-12.974-.38-8.165 6.344-14.889 14.509-14.509 5.417.252 10.484-2.674 12.974-7.491 3.754-7.261 12.938-9.722 19.82-5.311 4.565 2.927 10.416 2.927 14.981 0z" fill="#fdb441"/></g><g><path d="m184.735 336.007c-2.927-4.565-2.927-10.416 0-14.981 4.412-6.881 1.951-16.066-5.311-19.82-4.817-2.49-7.743-7.557-7.491-12.974.38-8.165-6.344-14.889-14.509-14.509-5.417.252-10.484-2.674-12.974-7.491-3.754-7.261-12.938-9.722-19.82-5.311-3.307 2.12-7.288 2.696-10.968 1.744 1.036 1.011 1.931 2.204 2.636 3.567 2.49 4.817 7.558 7.743 12.974 7.491 8.165-.38 14.889 6.344 14.509 14.509-.252 5.417 2.674 10.484 7.491 12.974 7.261 3.754 9.722 12.938 5.311 19.82-2.927 4.565-2.927 10.416 0 14.981 4.412 6.882 1.951 16.066-5.311 19.82-4.817 2.49-7.743 7.557-7.491 12.974.38 8.165-6.344 14.889-14.509 14.509-5.417-.252-10.484 2.674-12.974 7.491-.704 1.363-1.6 2.556-2.636 3.567 3.679-.952 7.66-.376 10.968 1.744 6.882 4.412 16.066 1.951 19.82-5.311 2.49-4.817 7.558-7.743 12.974-7.491 8.165.38 14.889-6.344 14.509-14.509-.252-5.417 2.674-10.484 7.491-12.974 7.262-3.753 9.723-12.938 5.311-19.82z" fill="#fea613"/></g></g><g><path d="m500.416 218.521c-10.259-12.991-25.632-20.441-42.175-20.441h-30.422l.876-8.891c.79-7.979-1.845-15.962-7.229-21.905-5.385-5.945-13.074-9.354-21.095-9.354h-321.971c-8.18 0-15.97 3.524-21.373 9.668-5.405 6.147-7.904 14.331-6.855 22.455l6.605 50.958c.533 4.108 4.296 7.004 8.402 6.474 4.108-.533 7.006-4.294 6.474-8.402l-6.604-50.954c-.947-6.759 4.551-15.207 13.352-15.2h227.798v52.946h-15.969c-4.142 0-7.5 3.358-7.5 7.5v36.312c0 17.076 13.893 30.969 30.969 30.969s30.969-13.893 30.969-30.969v-36.312c0-4.142-3.358-7.5-7.5-7.5h-15.969v-52.946h79.172c6.692-.063 14.253 6.208 13.396 14.785l-10.49 106.52c-2.608 26.503-14.913 50.951-34.647 68.837-19.734 17.887-45.268 27.737-71.899 27.737 0 0-124.086-.573-130.318-1.69 2.506-1.062 4.815-2.596 6.775-4.555 4.244-4.244 6.518-10.116 6.239-16.111-.115-2.482 1.236-4.823 3.443-5.963 5.331-2.756 9.28-7.661 10.833-13.458 1.554-5.797.587-12.02-2.652-17.072-1.341-2.091-1.341-4.794 0-6.886 3.239-5.052 4.206-11.275 2.652-17.072-1.553-5.797-5.502-10.702-10.833-13.458-2.207-1.141-3.558-3.481-3.443-5.963.279-5.995-1.995-11.867-6.238-16.11-4.244-4.244-10.108-6.527-16.111-6.239-2.485.11-4.823-1.236-5.963-3.443-2.756-5.332-7.661-9.28-13.458-10.833-5.799-1.554-12.021-.587-17.072 2.652-2.092 1.341-4.794 1.341-6.886 0-5.053-3.239-11.276-4.206-17.072-2.652-5.797 1.553-10.702 5.502-13.458 10.833-1.141 2.207-3.484 3.554-5.964 3.443-5.994-.283-11.867 1.995-16.11 6.238-4.244 4.244-6.518 10.116-6.239 16.111.115 2.481-1.236 4.822-3.443 5.963-5.332 2.756-9.28 7.661-10.833 13.458-1.554 5.797-.587 12.02 2.652 17.072 1.341 2.091 1.341 4.794 0 6.886-3.239 5.053-4.206 11.275-2.652 17.072 1.553 5.797 5.502 10.702 10.833 13.458 2.207 1.141 3.559 3.482 3.443 5.964-.279 5.995 1.995 11.867 6.239 16.111 3.861 3.861 9.064 6.088 14.495 6.246h-60.566c-8.284 0-15.024 6.74-15.024 15.025 0 24.18 19.672 43.852 43.853 43.852h310.907c4.142 0 7.5-3.358 7.5-7.5s-3.358-7.5-7.5-7.5h-310.907c-15.909 0-28.853-12.943-28.829-28.876l461.495.024c0 15.909-12.943 28.852-28.853 28.852h-56.718c-4.142 0-7.5 3.358-7.5 7.5s3.358 7.5 7.5 7.5h56.718c24.18 0 43.853-19.672 43.853-43.852 0-8.285-6.74-15.024-15.024-15.024h-121.128c9.496-5.302 18.784-11.917 27.441-20.521h33.962c9.375 0 18.61-1.5 27.44-4.455 28.656-9.548 49.94-32.796 56.936-62.188l9.37-39.368c3.835-16.096.153-32.773-10.1-45.758zm-170.749 51.166c0 8.805-7.164 15.969-15.969 15.969-8.805 0-15.969-7.164-15.969-15.969v-28.812h31.938zm-259.83 99.464c.387-8.317-4.142-16.162-11.539-19.986-1.614-.834-2.762-2.26-3.232-4.015s-.189-3.564.792-5.094c4.494-7.009 4.494-16.068 0-23.077-.981-1.53-1.262-3.339-.792-5.094s1.618-3.181 3.233-4.016c7.396-3.823 11.925-11.668 11.538-19.985-.084-1.815.577-3.522 1.862-4.807s2.999-1.94 4.807-1.862c8.309.393 16.161-4.142 19.986-11.539.834-1.614 2.26-2.762 4.015-3.232 1.757-.471 3.565-.189 5.094.792 7.009 4.494 16.068 4.494 23.077 0 1.53-.98 3.337-1.263 5.094-.792 1.755.47 3.181 1.618 4.016 3.233 3.823 7.396 11.668 11.939 19.985 11.538 1.82-.08 3.522.577 4.807 1.862s1.946 2.992 1.862 4.807c-.387 8.317 4.142 16.162 11.539 19.985 1.614.834 2.762 2.26 3.232 4.015s.189 3.564-.792 5.094c-4.494 7.009-4.494 16.068 0 23.077.981 1.53 1.262 3.339.792 5.094s-1.618 3.181-3.232 4.015c-7.396 3.823-11.926 11.668-11.539 19.986.084 1.815-.577 3.522-1.862 4.807s-2.994 1.942-4.807 1.862c-8.305-.394-16.163 4.142-19.986 11.539-.834 1.614-2.26 2.762-4.015 3.232-1.755.471-3.564.19-5.094-.792-3.505-2.247-7.521-3.371-11.539-3.371-4.017 0-8.034 1.124-11.539 3.371-1.53.981-3.337 1.263-5.094.792-1.755-.47-3.181-1.618-4.015-3.232-3.824-7.396-11.675-11.927-19.986-11.539-1.811.074-3.521-.577-4.807-1.862-1.284-1.284-1.945-2.992-1.861-4.806zm7.366 21.652c.094-.004.185.008.278.007h-.634c.119-.003.237-.001.356-.007zm418.721-130-9.37 39.37c-5.785 24.308-23.387 43.535-47.094 51.434-11.575 4.611-31.491 3.659-43.82 3.683 3.797-5.244 7.161-10.772 10.068-16.53 9.179.064 18.796.434 28.526-2.835 18.233-6.085 31.777-20.88 36.232-39.578l9.37-39.37c1.581-6.641.064-13.531-4.175-18.921-4.243-5.36-10.592-8.435-17.42-8.435h-5.676c-4.142 0-7.5 3.358-7.5 7.5s3.358 7.5 7.5 7.5h5.676c13.475 3.178 3.853 16.044.784 35.021-4.248 27.431-18.185 45.177-46.969 44.119 3.119-9.002 5.2-18.408 6.149-28.055l8.137-82.625h31.9c11.925 0 23.007 5.372 30.403 14.738 7.39 9.358 10.043 21.38 7.279 32.984z"/><circle cx="92.551" cy="327.974" r="7.382"/><path d="m112.462 347.885c-2.883 2.883-2.883 7.557 0 10.44s7.557 2.883 10.44 0 2.883-7.557 0-10.44-7.557-2.883-10.44 0z"/><circle cx="116.597" cy="303.928" r="7.382"/><circle cx="141.728" cy="329.059" r="7.382"/><path d="m216.247 122.69c4.142 0 7.5-3.358 7.5-7.5v-29.683c0-4.142-3.358-7.5-7.5-7.5s-7.5 3.358-7.5 7.5v29.683c0 4.142 3.357 7.5 7.5 7.5z"/><path d="m249 122.69c4.142 0 7.5-3.358 7.5-7.5v-45.377c0-4.142-3.358-7.5-7.5-7.5s-7.5 3.358-7.5 7.5v45.377c0 4.142 3.358 7.5 7.5 7.5z"/><path d="m281.753 122.69c4.142 0 7.5-3.358 7.5-7.5v-29.683c0-4.142-3.358-7.5-7.5-7.5s-7.5 3.358-7.5 7.5v29.683c0 4.142 3.358 7.5 7.5 7.5z"/></g></g></svg>